
<svg xmlns="http://www.w3.org/2000/svg" width="1440" height="900" viewBox="0 0 1440 900">
<style>
text{font-family:Arial,sans-serif}
</style>

<rect width="1440" height="900" fill="#F7F7F7"/>
<rect x="0" y="0" width="1440" height="900" rx="24" fill="white" stroke="#EAEAEA"/>

<!-- Sidebar -->
<rect x="0" y="0" width="260" height="900" fill="white" stroke="#EAEAEA"/>
<text x="60" y="90" font-size="26" font-weight="700" fill="#F58220">PAUD</text>
<text x="60" y="125" font-size="22" font-weight="700" fill="#2FA84F">SmartCare</text>

<rect x="20" y="140" width="220" height="58" rx="12" fill="#FF8400"/>
<text x="85" y="177" font-size="18" fill="white" font-weight="700">Dashboard</text>

<text x="45" y="250" font-size="18">Data Guru</text>
<text x="45" y="320" font-size="18">Data Orang Tua</text>
<text x="45" y="390" font-size="18">Data Anak</text>
<text x="45" y="460" font-size="18">Laporan</text>
<text x="45" y="530" font-size="18">Pengaturan</text>
<text x="45" y="600" font-size="18">Backup Data</text>
<text x="45" y="670" font-size="18">Keluar</text>

<!-- Header -->
<line x1="260" y1="110" x2="1440" y2="110" stroke="#EAEAEA"/>
<text x="310" y="60" font-size="42" font-weight="700">Dashboard Admin</text>

<text x="1280" y="45" font-size="18" font-weight="700">Admin</text>
<text x="1260" y="72" font-size="14" fill="#666">Super Admin</text>
<circle cx="1370" cy="55" r="28" fill="#FFD7B0"/>

<!-- Stat Cards -->
<rect x="305" y="145" width="260" height="170" rx="18" fill="#FFF7EE" stroke="#EEE"/>
<text x="340" y="250" font-size="44" font-weight="700">10</text>
<text x="340" y="285" font-size="18">Jumlah Guru</text>

<rect x="585" y="145" width="260" height="170" rx="18" fill="#F4FBF5" stroke="#EEE"/>
<text x="620" y="250" font-size="44" font-weight="700">120</text>
<text x="620" y="285" font-size="18">Jumlah Anak</text>

<rect x="865" y="145" width="260" height="170" rx="18" fill="#F3F8FF" stroke="#EEE"/>
<text x="900" y="250" font-size="44" font-weight="700">115</text>
<text x="900" y="285" font-size="18">Jumlah Orang Tua</text>

<rect x="1145" y="145" width="260" height="170" rx="18" fill="#FBF5FF" stroke="#EEE"/>
<text x="1180" y="250" font-size="44" font-weight="700">120</text>
<text x="1180" y="285" font-size="18">Laporan Bulan Ini</text>

<!-- Chart -->
<rect x="305" y="350" width="650" height="420" rx="18" fill="white" stroke="#EAEAEA"/>
<text x="340" y="400" font-size="22" font-weight="700">Laporan Bulan Ini</text>

<line x1="380" y1="700" x2="900" y2="700" stroke="#DDD"/>
<line x1="380" y1="620" x2="900" y2="620" stroke="#EEE"/>
<line x1="380" y1="540" x2="900" y2="540" stroke="#EEE"/>
<line x1="380" y1="460" x2="900" y2="460" stroke="#EEE"/>

<polyline fill="none" stroke="#FF8400" stroke-width="4"
points="400,650 470,560 530,600 590,480 650,560 710,530 770,560 830,500 890,450"/>
<circle cx="400" cy="650" r="5" fill="#FF8400"/>
<circle cx="470" cy="560" r="5" fill="#FF8400"/>
<circle cx="530" cy="600" r="5" fill="#FF8400"/>
<circle cx="590" cy="480" r="5" fill="#FF8400"/>
<circle cx="650" cy="560" r="5" fill="#FF8400"/>
<circle cx="710" cy="530" r="5" fill="#FF8400"/>
<circle cx="770" cy="560" r="5" fill="#FF8400"/>
<circle cx="830" cy="500" r="5" fill="#FF8400"/>
<circle cx="890" cy="450" r="5" fill="#FF8400"/>

<!-- Activity -->
<rect x="980" y="350" width="420" height="420" rx="18" fill="white" stroke="#EAEAEA"/>
<text x="1010" y="400" font-size="22" font-weight="700">Aktivitas Terbaru</text>

<text x="1030" y="455" font-size="16">Guru Rina menginput perkembangan</text>
<text x="1030" y="482" font-size="13" fill="#666">30 Jun 2024, 10:30</text>

<text x="1030" y="550" font-size="16">Laporan bulanan Mei dikirim</text>
<text x="1030" y="577" font-size="13" fill="#666">30 Jun 2024, 09:15</text>

<text x="1030" y="645" font-size="16">Data anak baru ditambahkan</text>
<text x="1030" y="672" font-size="13" fill="#666">29 Jun 2024, 16:45</text>

<text x="1030" y="740" font-size="16">Backup data berhasil</text>
<text x="1030" y="767" font-size="13" fill="#666">29 Jun 2024, 23:00</text>
</svg>
